<?xml version="1.0" encoding="utf-8"?>
<!-- Generator: Adobe Illustrator 27.0.0, SVG Export Plug-In . SVG Version: 6.00 Build 0)  -->
<svg version="1.1" id="Capa_1" xmlns="http://www.w3.org/2000/svg" xmlns:xlink="http://www.w3.org/1999/xlink" x="0px" y="0px"
	 viewBox="0 0 132.57 30.75" style="enable-background:new 0 0 132.57 30.75;" xml:space="preserve">
<g>
	<g>
		<path d="M15.45,15.33c-0.72-2.66-2.55-4.24-5.31-4.24c-4.24,0-6,3.86-6,7.59c0,3.76,1.73,7.52,6,7.52c3.07,0,5-1.83,5.49-4.8h2.21
			c-0.72,3.97-3.21,6.66-7.69,6.66c-5.69,0-8.21-4.11-8.21-9.39c0-4.97,2.86-9.45,8.21-9.45c4.11,0,6.8,1.97,7.42,6.11H15.45z"/>
		<path d="M18.73,18.65c0-5.21,2.76-9.42,8.28-9.42c5.59,0,8.28,4.18,8.28,9.42c0,5.66-3.28,9.42-8.28,9.42
			C22.46,28,18.73,24.89,18.73,18.65z M27.01,11.09c-4.35,0-6.07,3.69-6.07,7.56c0,4.45,2.1,7.56,6.07,7.56
			c4.35,0,6.07-3.73,6.07-7.56C33.05,14.44,31.39,11.09,27.01,11.09z"/>
		<path d="M51.48,27.58h-3.04v-11.8c0-2.45-0.69-4.04-3.59-4.04c-2.48,0-5.04,1.45-5.04,6v9.83h-3.04V2.81h3.04v9.14h0.07
			c0.86-1.14,2.38-2.93,5.28-2.93c2.79,0,6.31,1.14,6.31,6.28V27.58z"/>
		<path d="M69.21,21.92c-0.1,0.86-0.93,3.42-3.21,4.93c-0.83,0.55-2,1.24-4.9,1.24c-5.07,0-8.07-3.83-8.07-9.04
			c0-5.59,2.69-10.04,8.66-10.04c5.21,0,7.76,4.14,7.76,10.52H56.27c0,3.76,1.76,5.94,5.24,5.94c2.86,0,4.55-2.21,4.66-3.55H69.21z
			 M66.31,17.13c-0.17-2.79-1.35-5.38-5.04-5.38c-2.79,0-5,2.59-5,5.38H66.31z"/>
		<path d="M81.39,14.82c-0.21-1.17-0.62-2.42-3.24-2.42s-2.97,1-2.97,1.79c0,2.9,11.49,0.79,11.49,7.56c0,5.35-5.18,6.31-8.04,6.31
			c-4.18,0-8.7-1.45-8.83-6.35h4.97c0,1.55,0.97,2.69,4,2.69c2.48,0,3.07-1.21,3.07-1.9c0-3.07-11.39-0.76-11.39-7.63
			c0-2.69,1.69-6.14,7.42-6.14c3.59,0,7.87,0.9,8.25,6.07H81.39z"/>
		<path d="M93.09,7.05h-4.83V2.57h4.83V7.05z M93.09,9.23v18.36h-4.83V9.23H93.09z"/>
		<path d="M103.96,28.07c-4.93,0-9.39-3.04-9.39-9.66s4.45-9.66,9.39-9.66c4.93,0,9.39,3.04,9.39,9.66S108.89,28.07,103.96,28.07z
			 M103.96,12.81c-3.73,0-4.42,3.24-4.42,5.59c0,2.35,0.69,5.59,4.42,5.59s4.42-3.24,4.42-5.59
			C108.38,16.06,107.69,12.81,103.96,12.81z"/>
		<path d="M131.25,27.58h-4.83V16.44c0-1.35-0.07-3.62-3.14-3.62c-2.14,0-3.8,1.45-3.8,4.24v10.52h-4.83V9.23h4.62v2.69h0.07
			c0.66-1.1,2.04-3.17,5.52-3.17c3.59,0,6.38,2.11,6.38,6.14V27.58z"/>
	</g>
</g>
</svg>
